<svg width="60" height="69" viewBox="0 0 60 69" fill="none" xmlns="http://www.w3.org/2000/svg">
<path d="M53.3333 49.2857V32.2C51.6667 32.5286 50 32.8571 48.3333 32.8571H46.6667V52.5714H13.3333V29.5714C13.3333 20.3714 20.6667 13.1429 30 13.1429C30.3333 8.87143 32.3333 5.25714 35 2.3C34 0.985714 32 0 30 0C26.3333 0 23.3333 2.95714 23.3333 6.57143V7.55714C13.3333 10.5143 6.66667 19.3857 6.66667 29.5714V49.2857L0 55.8571V59.1429H60V55.8571L53.3333 49.2857ZM23.3333 62.4286C23.3333 66.0429 26.3333 69 30 69C33.6667 69 36.6667 66.0429 36.6667 62.4286H23.3333ZM60 14.7857C60 21.0286 54.6667 26.2857 48.3333 26.2857C42 26.2857 36.6667 21.0286 36.6667 14.7857C36.6667 8.54286 42 3.28571 48.3333 3.28571C54.6667 3.28571 60 8.54286 60 14.7857Z" fill="#D20A11"/>
</svg>
