<svg width="160" height="144" fill="none" xmlns="http://www.w3.org/2000/svg"><path d="M129.033 75.268c-1.341 1.286-1.397 3.427-.048 4.704a63.512 63.512 0 005.844 4.902c1.492 1.105 3.58.668 4.6-.887 1.02-1.555.585-3.638-.9-4.753a56.584 56.584 0 01-4.679-3.925c-1.357-1.269-3.475-1.327-4.817-.041zm14.998 7.033c-1.34 1.287-1.394 3.429-.044 4.705a63.338 63.338 0 005.912 4.942c1.494 1.103 3.581.661 4.598-.896 1.016-1.557.577-3.64-.91-4.751a56.75 56.75 0 01-4.739-3.963c-1.358-1.267-3.477-1.323-4.817-.037zM8.351 91.022c-1.725.659-3.662-.21-4.246-1.968A80.698 80.698 0 01.801 52.297c.261-1.835 2.012-3.038 3.827-2.7 1.814.339 3.004 2.09 2.75 3.926a73.958 73.958 0 002.98 33.142c.576 1.76-.282 3.697-2.007 4.356z" fill="#000"/><path d="M5.958 43.802c-1.798-.481-2.873-2.338-2.318-4.121a80.61 80.61 0 011.706-4.92c.668-1.743 2.66-2.527 4.366-1.783 1.706.745 2.48 2.735 1.819 4.481a73.842 73.842 0 00-1.376 3.967c-.562 1.782-2.4 2.858-4.197 2.376z" fill="red"/><path d="M145.75 103.179c1.597.96 2.122 3.042 1.1 4.604a80.13 80.13 0 01-28.999 26.654 79.715 79.715 0 01-41.506 9.479 79.756 79.756 0 01-40.47-13.245A80.218 80.218 0 019.418 101.47c-.876-1.649-.163-3.674 1.514-4.484s3.683-.096 4.565 1.55a73.472 73.472 0 0024.094 26.49 73.035 73.035 0 0037.062 12.129 73 73 0 0038.01-8.681 73.373 73.373 0 0026.4-24.171c1.028-1.557 3.091-2.084 4.687-1.124zm4.099-71.209c1.693-.768 3.692-.014 4.385 1.717a80.688 80.688 0 01.92 57.5c-.637 1.752-2.611 2.57-4.328 1.858-1.716-.713-2.525-2.686-1.895-4.442a73.894 73.894 0 00-.834-52.133c-.686-1.734.059-3.733 1.752-4.5z" fill="#000"/><path d="M131.87 93.942c1.602.936 2.153 3.006 1.138 4.564a63.415 63.415 0 01-30.145 24.492 63.099 63.099 0 01-41.933 1.337 63.388 63.388 0 01-33.572-25.274 63.86 63.86 0 01-10.49-40.803 63.773 63.773 0 0117.189-38.441A63.264 63.264 0 0171.39.59a63.129 63.129 0 0141.11 8.42 63.555 63.555 0 0125.602 29.246c.739 1.708-.151 3.655-1.888 4.306-1.737.652-3.661-.24-4.411-1.943a56.823 56.823 0 00-22.747-25.82 56.438 56.438 0 00-36.752-7.527A56.56 56.56 0 0038.925 24.46a57.016 57.016 0 00-15.368 34.37 57.093 57.093 0 009.38 36.479 56.674 56.674 0 0030.013 22.596 56.414 56.414 0 0037.49-1.195 56.693 56.693 0 0026.755-21.599c1.026-1.551 3.072-2.104 4.675-1.168z" fill="#000"/><path d="M112.34 34.494c1.344-1.211 3.42-1.105 4.529.326a47.067 47.067 0 019.829 30.272 47.05 47.05 0 01-11.67 29.605c-1.195 1.36-3.274 1.337-4.541.045-1.266-1.292-1.239-3.363-.06-4.736a40.463 40.463 0 009.736-25.117 40.48 40.48 0 00-8.174-25.672c-1.092-1.443-.993-3.512.351-4.723zm26.72 18.508c1.825-.33 3.579.89 3.81 2.737a63.93 63.93 0 01-2.724 27.918c-.583 1.767-2.54 2.621-4.266 1.943-1.727-.679-2.569-2.632-1.997-4.403a57.14 57.14 0 002.368-24.265c-.219-1.85.985-3.602 2.809-3.93zM55.495 78.348L53 54.241h5.505L61 78.348h-5.505zm9.025 0l-2.753-24.107h5.505l2.03 17.6 6.846-5.159V6.876l1.018-.061 1.721-.06 1.447-.01 1.319.023v59.948l6.778 5.125 2.064-17.6H96l-2.752 24.107h-4.61l-9.738-7.72-9.77 7.72h-4.61z" fill="#000"/></svg>