<svg width="88" height="79" fill="none" xmlns="http://www.w3.org/2000/svg"><path d="M70.968 41.293c-.737.705-.768 1.88-.026 2.58 1.017.96 2.09 1.858 3.214 2.69.82.606 1.969.366 2.53-.487.56-.853.322-1.996-.495-2.608a31.17 31.17 0 01-2.574-2.153c-.746-.696-1.911-.728-2.649-.022zm8.249 3.858c-.737.706-.767 1.881-.024 2.581a34.857 34.857 0 003.251 2.712c.822.604 1.97.362 2.53-.492.558-.855.317-1.997-.501-2.607a31.134 31.134 0 01-2.607-2.174c-.747-.695-1.912-.726-2.649-.02zM4.593 49.935c-.949.362-2.014-.115-2.335-1.08A44.166 44.166 0 01.44 28.691c.143-1.007 1.106-1.667 2.104-1.482.998.186 1.653 1.147 1.513 2.154a40.476 40.476 0 001.639 18.182c.317.966-.155 2.029-1.104 2.39z" fill="#688385"/><path d="M3.277 24.03c-.989-.264-1.58-1.283-1.275-2.261.283-.91.596-1.81.938-2.699.368-.956 1.463-1.386 2.401-.978.939.408 1.365 1.5 1 2.458a40.397 40.397 0 00-.756 2.177c-.309.977-1.32 1.567-2.308 1.303z" fill="red"/><path d="M80.163 56.605c.878.526 1.167 1.669.605 2.526a44.032 44.032 0 01-15.95 14.622 43.931 43.931 0 01-45.087-2.066 44.054 44.054 0 01-14.55-16.02c-.483-.904-.09-2.016.832-2.46.922-.444 2.025-.052 2.51.85A40.344 40.344 0 0021.775 68.59a40.23 40.23 0 0041.29 1.892 40.322 40.322 0 0014.52-13.26c.565-.855 1.7-1.144 2.578-.617zm2.254-39.066c.931-.422 2.03-.008 2.411.942a44.158 44.158 0 01.507 31.545c-.35.961-1.436 1.41-2.38 1.02-.945-.392-1.39-1.474-1.043-2.437a40.448 40.448 0 00-.459-28.602c-.377-.95.033-2.047.964-2.468z" fill="#688385"/><path d="M72.528 51.538c.882.513 1.185 1.649.626 2.503a34.862 34.862 0 01-16.58 13.437 34.785 34.785 0 01-23.063.733 34.855 34.855 0 01-18.464-13.865A34.967 34.967 0 0118.73 10.87 34.825 34.825 0 0139.265.324a34.792 34.792 0 0122.61 4.619 34.894 34.894 0 0114.08 16.045c.407.936-.082 2.004-1.038 2.362-.955.357-2.014-.132-2.426-1.066A31.197 31.197 0 0059.98 8.118 31.106 31.106 0 0039.765 3.99a31.135 31.135 0 00-18.357 9.43 31.261 31.261 0 00-3.294 38.868 31.161 31.161 0 0016.508 12.396 31.099 31.099 0 0020.62-.656 31.167 31.167 0 0014.714-11.849c.564-.85 1.69-1.154 2.571-.64z" fill="#688385"/><path d="M61.787 18.924c.739-.665 1.881-.607 2.491.178a25.78 25.78 0 01-1.013 32.85c-.657.746-1.8.733-2.497.024-.697-.709-.681-1.845-.033-2.598a22.173 22.173 0 00.86-27.863c-.602-.792-.547-1.927.192-2.591zm14.696 10.153c1.004-.18 1.969.488 2.095 1.502a34.98 34.98 0 01-1.498 15.316c-.32.97-1.397 1.438-2.346 1.066-.95-.372-1.413-1.444-1.098-2.416a31.272 31.272 0 001.302-13.312c-.12-1.014.542-1.976 1.545-2.156zM30.522 42.982L29.15 29.757h3.028l1.372 13.225h-3.028zm4.964 0l-1.514-13.225h3.027l1.117 9.655 3.766-2.83V3.772l.56-.033.946-.034.796-.005.725.013V36.6l3.728 2.812 1.135-9.656H52.8l-1.514 13.225h-2.535l-5.356-4.235-5.374 4.235h-2.535z" fill="#688385"/></svg>