<svg width="60" height="69" fill="none" xmlns="http://www.w3.org/2000/svg"><path d="M53.333 49.286V32.2c-1.666.329-3.333.657-5 .657h-1.666v19.714H13.333v-23c0-9.2 7.334-16.428 16.667-16.428.333-4.272 2.333-7.886 5-10.843C34 .986 32 0 30 0c-3.667 0-6.667 2.957-6.667 6.571v.986c-10 2.957-16.666 11.829-16.666 22.014v19.715L0 55.857v3.286h60v-3.286l-6.667-6.571zm-30 13.143c0 3.614 3 6.571 6.667 6.571s6.667-2.957 6.667-6.571H23.333zM60 14.786c0 6.243-5.333 11.5-11.667 11.5-6.333 0-11.666-5.257-11.666-11.5S42 3.286 48.333 3.286C54.667 3.286 60 8.543 60 14.786z" fill="#D20A11"/></svg>